<?xml version="1.0" encoding="utf-8" standalone="no"?>
<!DOCTYPE svg PUBLIC "-//W3C//DTD SVG 1.1//EN"
  "http://www.w3.org/Graphics/SVG/1.1/DTD/svg11.dtd">
<svg xmlns:xlink="http://www.w3.org/1999/xlink" width="444.42pt" height="360pt" viewBox="0 0 444.42 360" xmlns="http://www.w3.org/2000/svg" version="1.1">
 <metadata>
  <rdf:RDF xmlns:dc="http://purl.org/dc/elements/1.1/" xmlns:cc="http://creativecommons.org/ns#" xmlns:rdf="http://www.w3.org/1999/02/22-rdf-syntax-ns#">
   <cc:Work>
    <dc:type rdf:resource="http://purl.org/dc/dcmitype/StillImage"/>
    <dc:date>1980-01-01T00:00:00+00:00</dc:date>
    <dc:format>image/svg+xml</dc:format>
    <dc:creator>
     <cc:Agent>
      <dc:title>Matplotlib v3.6.2, https://matplotlib.org/</dc:title>
     </cc:Agent>
    </dc:creator>
   </cc:Work>
  </rdf:RDF>
 </metadata>
 <defs>
  <style type="text/css">*{stroke-linejoin: round; stroke-linecap: butt}</style>
 </defs>
 <g id="figure_1">
  <g id="patch_1">
   <path d="M 0 360 
L 444.42 360 
L 444.42 0 
L 0 0 
z
" style="fill: #ffffff"/>
  </g>
  <g id="axes_1">
   <g id="patch_2">
    <path d="M 57.57708 318.04 
L 355.5558 318.04 
L 355.5558 25.2 
L 57.57708 25.2 
z
" style="fill: #ffffff"/>
   </g>
   <g id="PathCollection_1">
    <defs>
     <path id="m7256e1372d" d="M 0 3 
C 0.795609 3 1.55874 2.683901 2.12132 2.12132 
C 2.683901 1.55874 3 0.795609 3 0 
C 3 -0.795609 2.683901 -1.55874 2.12132 -2.12132 
C 1.55874 -2.683901 0.795609 -3 0 -3 
C -0.795609 -3 -1.55874 -2.683901 -2.12132 -2.12132 
C -2.683901 -1.55874 -3 -0.795609 -3 0 
C -3 0.795609 -2.683901 1.55874 -2.12132 2.12132 
C -1.55874 2.683901 -0.795609 3 0 3 
z
" style="stroke: #6282ea; stroke-opacity: 0.8"/>
    </defs>
    <g clip-path="url(#p3585178bde)">
     <use xlink:href="#m7256e1372d" x="162.7081" y="243.918635" style="fill: #6282ea; fill-opacity: 0.8; stroke: #6282ea; stroke-opacity: 0.8"/>
     <use xlink:href="#m7256e1372d" x="176.897563" y="246.052897" style="fill: #6282ea; fill-opacity: 0.8; stroke: #6282ea; stroke-opacity: 0.8"/>
     <use xlink:href="#m7256e1372d" x="152.388491" y="215.392227" style="fill: #6282ea; fill-opacity: 0.8; stroke: #6282ea; stroke-opacity: 0.8"/>
     <use xlink:href="#m7256e1372d" x="180.767417" y="226.302662" style="fill: #6282ea; fill-opacity: 0.8; stroke: #6282ea; stroke-opacity: 0.8"/>
     <use xlink:href="#m7256e1372d" x="139.488979" y="238.081507" style="fill: #6282ea; fill-opacity: 0.8; stroke: #6282ea; stroke-opacity: 0.8"/>
     <use xlink:href="#m7256e1372d" x="183.347319" y="304.729091" style="fill: #6282ea; fill-opacity: 0.8; stroke: #6282ea; stroke-opacity: 0.8"/>
     <use xlink:href="#m7256e1372d" x="160.128198" y="278.369238" style="fill: #6282ea; fill-opacity: 0.8; stroke: #6282ea; stroke-opacity: 0.8"/>
     <use xlink:href="#m7256e1372d" x="153.678442" y="215.868044" style="fill: #6282ea; fill-opacity: 0.8; stroke: #6282ea; stroke-opacity: 0.8"/>
     <use xlink:href="#m7256e1372d" x="194.956879" y="243.895816" style="fill: #6282ea; fill-opacity: 0.8; stroke: #6282ea; stroke-opacity: 0.8"/>
    </g>
   </g>
   <g id="PathCollection_2">
    <defs>
     <path id="m5075525ead" d="M 0 3 
C 0.795609 3 1.55874 2.683901 2.12132 2.12132 
C 2.683901 1.55874 3 0.795609 3 0 
C 3 -0.795609 2.683901 -1.55874 2.12132 -2.12132 
C 1.55874 -2.683901 0.795609 -3 0 -3 
C -0.795609 -3 -1.55874 -2.683901 -2.12132 -2.12132 
C -2.683901 -1.55874 -3 -0.795609 -3 0 
C -3 0.795609 -2.683901 1.55874 -2.12132 2.12132 
C -1.55874 2.683901 -0.795609 3 0 3 
z
" style="stroke: #8db0fe; stroke-opacity: 0.8"/>
    </defs>
    <g clip-path="url(#p3585178bde)">
     <use xlink:href="#m5075525ead" x="342.011313" y="201.091903" style="fill: #8db0fe; fill-opacity: 0.8; stroke: #8db0fe; stroke-opacity: 0.8"/>
     <use xlink:href="#m5075525ead" x="166.577954" y="207.623826" style="fill: #8db0fe; fill-opacity: 0.8; stroke: #8db0fe; stroke-opacity: 0.8"/>
     <use xlink:href="#m5075525ead" x="339.43141" y="198.325472" style="fill: #8db0fe; fill-opacity: 0.8; stroke: #8db0fe; stroke-opacity: 0.8"/>
     <use xlink:href="#m5075525ead" x="147.228686" y="205.658171" style="fill: #8db0fe; fill-opacity: 0.8; stroke: #8db0fe; stroke-opacity: 0.8"/>
     <use xlink:href="#m5075525ead" x="143.358833" y="202.681031" style="fill: #8db0fe; fill-opacity: 0.8; stroke: #8db0fe; stroke-opacity: 0.8"/>
    </g>
   </g>
   <g id="PathCollection_3">
    <defs>
     <path id="m3c06aeaa2c" d="M 0 3 
C 0.795609 3 1.55874 2.683901 2.12132 2.12132 
C 2.683901 1.55874 3 0.795609 3 0 
C 3 -0.795609 2.683901 -1.55874 2.12132 -2.12132 
C 1.55874 -2.683901 0.795609 -3 0 -3 
C -0.795609 -3 -1.55874 -2.683901 -2.12132 -2.12132 
C -2.683901 -1.55874 -3 -0.795609 -3 0 
C -3 0.795609 -2.683901 1.55874 -2.12132 2.12132 
C -1.55874 2.683901 -0.795609 3 0 3 
z
" style="stroke: #b9d0f9; stroke-opacity: 0.8"/>
    </defs>
    <g clip-path="url(#p3585178bde)">
     <use xlink:href="#m3c06aeaa2c" x="334.271606" y="193.889473" style="fill: #b9d0f9; fill-opacity: 0.8; stroke: #b9d0f9; stroke-opacity: 0.8"/>
     <use xlink:href="#m3c06aeaa2c" x="274.933852" y="192.571187" style="fill: #b9d0f9; fill-opacity: 0.8; stroke: #b9d0f9; stroke-opacity: 0.8"/>
     <use xlink:href="#m3c06aeaa2c" x="147.228686" y="182.01105" style="fill: #b9d0f9; fill-opacity: 0.8; stroke: #b9d0f9; stroke-opacity: 0.8"/>
     <use xlink:href="#m3c06aeaa2c" x="99.500493" y="180.401167" style="fill: #b9d0f9; fill-opacity: 0.8; stroke: #b9d0f9; stroke-opacity: 0.8"/>
    </g>
   </g>
   <g id="PathCollection_4">
    <defs>
     <path id="mdfd077226c" d="M 0 3 
C 0.795609 3 1.55874 2.683901 2.12132 2.12132 
C 2.683901 1.55874 3 0.795609 3 0 
C 3 -0.795609 2.683901 -1.55874 2.12132 -2.12132 
C 1.55874 -2.683901 0.795609 -3 0 -3 
C -0.795609 -3 -1.55874 -2.683901 -2.12132 -2.12132 
C -2.683901 -1.55874 -3 -0.795609 -3 0 
C -3 0.795609 -2.683901 1.55874 -2.12132 2.12132 
C -1.55874 2.683901 -0.795609 3 0 3 
z
" style="stroke: #dddcdc; stroke-opacity: 0.8"/>
    </defs>
    <g clip-path="url(#p3585178bde)">
     <use xlink:href="#mdfd077226c" x="125.299516" y="173.730104" style="fill: #dddcdc; fill-opacity: 0.8; stroke: #dddcdc; stroke-opacity: 0.8"/>
     <use xlink:href="#mdfd077226c" x="121.429663" y="165.512381" style="fill: #dddcdc; fill-opacity: 0.8; stroke: #dddcdc; stroke-opacity: 0.8"/>
    </g>
   </g>
   <g id="PathCollection_5">
    <defs>
     <path id="m9424092bdb" d="M 0 3 
C 0.795609 3 1.55874 2.683901 2.12132 2.12132 
C 2.683901 1.55874 3 0.795609 3 0 
C 3 -0.795609 2.683901 -1.55874 2.12132 -2.12132 
C 1.55874 -2.683901 0.795609 -3 0 -3 
C -0.795609 -3 -1.55874 -2.683901 -2.12132 -2.12132 
C -2.683901 -1.55874 -3 -0.795609 -3 0 
C -3 0.795609 -2.683901 1.55874 -2.12132 2.12132 
C -1.55874 2.683901 -0.795609 3 0 3 
z
" style="stroke: #f5c4ac; stroke-opacity: 0.8"/>
    </defs>
    <g clip-path="url(#p3585178bde)">
     <use xlink:href="#m9424092bdb" x="180.767417" y="152.584933" style="fill: #f5c4ac; fill-opacity: 0.8; stroke: #f5c4ac; stroke-opacity: 0.8"/>
     <use xlink:href="#m9424092bdb" x="127.879419" y="152.084904" style="fill: #f5c4ac; fill-opacity: 0.8; stroke: #f5c4ac; stroke-opacity: 0.8"/>
     <use xlink:href="#m9424092bdb" x="236.235317" y="152.430517" style="fill: #f5c4ac; fill-opacity: 0.8; stroke: #f5c4ac; stroke-opacity: 0.8"/>
     <use xlink:href="#m9424092bdb" x="317.502241" y="148.279428" style="fill: #f5c4ac; fill-opacity: 0.8; stroke: #f5c4ac; stroke-opacity: 0.8"/>
    </g>
   </g>
   <g id="PathCollection_6">
    <defs>
     <path id="m9f481a5dbe" d="M 0 3 
C 0.795609 3 1.55874 2.683901 2.12132 2.12132 
C 2.683901 1.55874 3 0.795609 3 0 
C 3 -0.795609 2.683901 -1.55874 2.12132 -2.12132 
C 1.55874 -2.683901 0.795609 -3 0 -3 
C -0.795609 -3 -1.55874 -2.683901 -2.12132 -2.12132 
C -2.683901 -1.55874 -3 -0.795609 -3 0 
C -3 0.795609 -2.683901 1.55874 -2.12132 2.12132 
C -1.55874 2.683901 -0.795609 3 0 3 
z
" style="stroke: #f4987a; stroke-opacity: 0.8"/>
    </defs>
    <g clip-path="url(#p3585178bde)">
     <use xlink:href="#m9f481a5dbe" x="163.998051" y="128.044764" style="fill: #f4987a; fill-opacity: 0.8; stroke: #f4987a; stroke-opacity: 0.8"/>
     <use xlink:href="#m9f481a5dbe" x="77.571323" y="130.753409" style="fill: #f4987a; fill-opacity: 0.8; stroke: #f4987a; stroke-opacity: 0.8"/>
    </g>
   </g>
   <g id="PathCollection_7">
    <defs>
     <path id="m6c00eef5f2" d="M 0 3 
C 0.795609 3 1.55874 2.683901 2.12132 2.12132 
C 2.683901 1.55874 3 0.795609 3 0 
C 3 -0.795609 2.683901 -1.55874 2.12132 -2.12132 
C 1.55874 -2.683901 0.795609 -3 0 -3 
C -0.795609 -3 -1.55874 -2.683901 -2.12132 -2.12132 
C -2.683901 -1.55874 -3 -0.795609 -3 0 
C -3 0.795609 -2.683901 1.55874 -2.12132 2.12132 
C -1.55874 2.683901 -0.795609 3 0 3 
z
" style="stroke: #dd5f4b; stroke-opacity: 0.8"/>
    </defs>
    <g clip-path="url(#p3585178bde)">
     <use xlink:href="#m6c00eef5f2" x="267.194145" y="98.148812" style="fill: #dd5f4b; fill-opacity: 0.8; stroke: #dd5f4b; stroke-opacity: 0.8"/>
     <use xlink:href="#m6c00eef5f2" x="219.465952" y="43.326998" style="fill: #dd5f4b; fill-opacity: 0.8; stroke: #dd5f4b; stroke-opacity: 0.8"/>
     <use xlink:href="#m6c00eef5f2" x="71.121567" y="112.941279" style="fill: #dd5f4b; fill-opacity: 0.8; stroke: #dd5f4b; stroke-opacity: 0.8"/>
     <use xlink:href="#m6c00eef5f2" x="198.826733" y="108.408036" style="fill: #dd5f4b; fill-opacity: 0.8; stroke: #dd5f4b; stroke-opacity: 0.8"/>
     <use xlink:href="#m6c00eef5f2" x="107.2402" y="109.69077" style="fill: #dd5f4b; fill-opacity: 0.8; stroke: #dd5f4b; stroke-opacity: 0.8"/>
     <use xlink:href="#m6c00eef5f2" x="215.596098" y="38.510909" style="fill: #dd5f4b; fill-opacity: 0.8; stroke: #dd5f4b; stroke-opacity: 0.8"/>
     <use xlink:href="#m6c00eef5f2" x="206.56644" y="117.332092" style="fill: #dd5f4b; fill-opacity: 0.8; stroke: #dd5f4b; stroke-opacity: 0.8"/>
     <use xlink:href="#m6c00eef5f2" x="206.56644" y="118.75562" style="fill: #dd5f4b; fill-opacity: 0.8; stroke: #dd5f4b; stroke-opacity: 0.8"/>
     <use xlink:href="#m6c00eef5f2" x="107.2402" y="110.28594" style="fill: #dd5f4b; fill-opacity: 0.8; stroke: #dd5f4b; stroke-opacity: 0.8"/>
    </g>
   </g>
   <g id="matplotlib.axis_1">
    <g id="xtick_1">
     <g id="line2d_1">
      <defs>
       <path id="m1380931a75" d="M 0 0 
L 0 3.5 
" style="stroke: #000000; stroke-width: 0.8"/>
      </defs>
      <g>
       <use xlink:href="#m1380931a75" x="100.790444" y="318.04" style="stroke: #000000; stroke-width: 0.8"/>
      </g>
     </g>
     <g id="text_1">
      <!-- 50 -->
      <g transform="translate(94.427944 332.638438) scale(0.1 -0.1)">
       <defs>
        <path id="DejaVuSans-35" d="M 691 4666 
L 3169 4666 
L 3169 4134 
L 1269 4134 
L 1269 2991 
Q 1406 3038 1543 3061 
Q 1681 3084 1819 3084 
Q 2600 3084 3056 2656 
Q 3513 2228 3513 1497 
Q 3513 744 3044 326 
Q 2575 -91 1722 -91 
Q 1428 -91 1123 -41 
Q 819 9 494 109 
L 494 744 
Q 775 591 1075 516 
Q 1375 441 1709 441 
Q 2250 441 2565 725 
Q 2881 1009 2881 1497 
Q 2881 1984 2565 2268 
Q 2250 2553 1709 2553 
Q 1456 2553 1204 2497 
Q 953 2441 691 2322 
L 691 4666 
z
" transform="scale(0.015625)"/>
        <path id="DejaVuSans-30" d="M 2034 4250 
Q 1547 4250 1301 3770 
Q 1056 3291 1056 2328 
Q 1056 1369 1301 889 
Q 1547 409 2034 409 
Q 2525 409 2770 889 
Q 3016 1369 3016 2328 
Q 3016 3291 2770 3770 
Q 2525 4250 2034 4250 
z
M 2034 4750 
Q 2819 4750 3233 4129 
Q 3647 3509 3647 2328 
Q 3647 1150 3233 529 
Q 2819 -91 2034 -91 
Q 1250 -91 836 529 
Q 422 1150 422 2328 
Q 422 3509 836 4129 
Q 1250 4750 2034 4750 
z
" transform="scale(0.015625)"/>
       </defs>
       <use xlink:href="#DejaVuSans-35"/>
       <use xlink:href="#DejaVuSans-30" x="63.623047"/>
      </g>
     </g>
    </g>
    <g id="xtick_2">
     <g id="line2d_2">
      <g>
       <use xlink:href="#m1380931a75" x="165.288003" y="318.04" style="stroke: #000000; stroke-width: 0.8"/>
      </g>
     </g>
     <g id="text_2">
      <!-- 100 -->
      <g transform="translate(155.744253 332.638438) scale(0.1 -0.1)">
       <defs>
        <path id="DejaVuSans-31" d="M 794 531 
L 1825 531 
L 1825 4091 
L 703 3866 
L 703 4441 
L 1819 4666 
L 2450 4666 
L 2450 531 
L 3481 531 
L 3481 0 
L 794 0 
L 794 531 
z
" transform="scale(0.015625)"/>
       </defs>
       <use xlink:href="#DejaVuSans-31"/>
       <use xlink:href="#DejaVuSans-30" x="63.623047"/>
       <use xlink:href="#DejaVuSans-30" x="127.246094"/>
      </g>
     </g>
    </g>
    <g id="xtick_3">
     <g id="line2d_3">
      <g>
       <use xlink:href="#m1380931a75" x="229.785561" y="318.04" style="stroke: #000000; stroke-width: 0.8"/>
      </g>
     </g>
     <g id="text_3">
      <!-- 150 -->
      <g transform="translate(220.241811 332.638438) scale(0.1 -0.1)">
       <use xlink:href="#DejaVuSans-31"/>
       <use xlink:href="#DejaVuSans-35" x="63.623047"/>
       <use xlink:href="#DejaVuSans-30" x="127.246094"/>
      </g>
     </g>
    </g>
    <g id="xtick_4">
     <g id="line2d_4">
      <g>
       <use xlink:href="#m1380931a75" x="294.283119" y="318.04" style="stroke: #000000; stroke-width: 0.8"/>
      </g>
     </g>
     <g id="text_4">
      <!-- 200 -->
      <g transform="translate(284.739369 332.638438) scale(0.1 -0.1)">
       <defs>
        <path id="DejaVuSans-32" d="M 1228 531 
L 3431 531 
L 3431 0 
L 469 0 
L 469 531 
Q 828 903 1448 1529 
Q 2069 2156 2228 2338 
Q 2531 2678 2651 2914 
Q 2772 3150 2772 3378 
Q 2772 3750 2511 3984 
Q 2250 4219 1831 4219 
Q 1534 4219 1204 4116 
Q 875 4013 500 3803 
L 500 4441 
Q 881 4594 1212 4672 
Q 1544 4750 1819 4750 
Q 2544 4750 2975 4387 
Q 3406 4025 3406 3419 
Q 3406 3131 3298 2873 
Q 3191 2616 2906 2266 
Q 2828 2175 2409 1742 
Q 1991 1309 1228 531 
z
" transform="scale(0.015625)"/>
       </defs>
       <use xlink:href="#DejaVuSans-32"/>
       <use xlink:href="#DejaVuSans-30" x="63.623047"/>
       <use xlink:href="#DejaVuSans-30" x="127.246094"/>
      </g>
     </g>
    </g>
    <g id="text_5">
     <!-- Crime Index Estimate -->
     <g transform="translate(152.654721 346.316563) scale(0.1 -0.1)">
      <defs>
       <path id="DejaVuSans-43" d="M 4122 4306 
L 4122 3641 
Q 3803 3938 3442 4084 
Q 3081 4231 2675 4231 
Q 1875 4231 1450 3742 
Q 1025 3253 1025 2328 
Q 1025 1406 1450 917 
Q 1875 428 2675 428 
Q 3081 428 3442 575 
Q 3803 722 4122 1019 
L 4122 359 
Q 3791 134 3420 21 
Q 3050 -91 2638 -91 
Q 1578 -91 968 557 
Q 359 1206 359 2328 
Q 359 3453 968 4101 
Q 1578 4750 2638 4750 
Q 3056 4750 3426 4639 
Q 3797 4528 4122 4306 
z
" transform="scale(0.015625)"/>
       <path id="DejaVuSans-72" d="M 2631 2963 
Q 2534 3019 2420 3045 
Q 2306 3072 2169 3072 
Q 1681 3072 1420 2755 
Q 1159 2438 1159 1844 
L 1159 0 
L 581 0 
L 581 3500 
L 1159 3500 
L 1159 2956 
Q 1341 3275 1631 3429 
Q 1922 3584 2338 3584 
Q 2397 3584 2469 3576 
Q 2541 3569 2628 3553 
L 2631 2963 
z
" transform="scale(0.015625)"/>
       <path id="DejaVuSans-69" d="M 603 3500 
L 1178 3500 
L 1178 0 
L 603 0 
L 603 3500 
z
M 603 4863 
L 1178 4863 
L 1178 4134 
L 603 4134 
L 603 4863 
z
" transform="scale(0.015625)"/>
       <path id="DejaVuSans-6d" d="M 3328 2828 
Q 3544 3216 3844 3400 
Q 4144 3584 4550 3584 
Q 5097 3584 5394 3201 
Q 5691 2819 5691 2113 
L 5691 0 
L 5113 0 
L 5113 2094 
Q 5113 2597 4934 2840 
Q 4756 3084 4391 3084 
Q 3944 3084 3684 2787 
Q 3425 2491 3425 1978 
L 3425 0 
L 2847 0 
L 2847 2094 
Q 2847 2600 2669 2842 
Q 2491 3084 2119 3084 
Q 1678 3084 1418 2786 
Q 1159 2488 1159 1978 
L 1159 0 
L 581 0 
L 581 3500 
L 1159 3500 
L 1159 2956 
Q 1356 3278 1631 3431 
Q 1906 3584 2284 3584 
Q 2666 3584 2933 3390 
Q 3200 3197 3328 2828 
z
" transform="scale(0.015625)"/>
       <path id="DejaVuSans-65" d="M 3597 1894 
L 3597 1613 
L 953 1613 
Q 991 1019 1311 708 
Q 1631 397 2203 397 
Q 2534 397 2845 478 
Q 3156 559 3463 722 
L 3463 178 
Q 3153 47 2828 -22 
Q 2503 -91 2169 -91 
Q 1331 -91 842 396 
Q 353 884 353 1716 
Q 353 2575 817 3079 
Q 1281 3584 2069 3584 
Q 2775 3584 3186 3129 
Q 3597 2675 3597 1894 
z
M 3022 2063 
Q 3016 2534 2758 2815 
Q 2500 3097 2075 3097 
Q 1594 3097 1305 2825 
Q 1016 2553 972 2059 
L 3022 2063 
z
" transform="scale(0.015625)"/>
       <path id="DejaVuSans-20" transform="scale(0.015625)"/>
       <path id="DejaVuSans-49" d="M 628 4666 
L 1259 4666 
L 1259 0 
L 628 0 
L 628 4666 
z
" transform="scale(0.015625)"/>
       <path id="DejaVuSans-6e" d="M 3513 2113 
L 3513 0 
L 2938 0 
L 2938 2094 
Q 2938 2591 2744 2837 
Q 2550 3084 2163 3084 
Q 1697 3084 1428 2787 
Q 1159 2491 1159 1978 
L 1159 0 
L 581 0 
L 581 3500 
L 1159 3500 
L 1159 2956 
Q 1366 3272 1645 3428 
Q 1925 3584 2291 3584 
Q 2894 3584 3203 3211 
Q 3513 2838 3513 2113 
z
" transform="scale(0.015625)"/>
       <path id="DejaVuSans-64" d="M 2906 2969 
L 2906 4863 
L 3481 4863 
L 3481 0 
L 2906 0 
L 2906 525 
Q 2725 213 2448 61 
Q 2172 -91 1784 -91 
Q 1150 -91 751 415 
Q 353 922 353 1747 
Q 353 2572 751 3078 
Q 1150 3584 1784 3584 
Q 2172 3584 2448 3432 
Q 2725 3281 2906 2969 
z
M 947 1747 
Q 947 1113 1208 752 
Q 1469 391 1925 391 
Q 2381 391 2643 752 
Q 2906 1113 2906 1747 
Q 2906 2381 2643 2742 
Q 2381 3103 1925 3103 
Q 1469 3103 1208 2742 
Q 947 2381 947 1747 
z
" transform="scale(0.015625)"/>
       <path id="DejaVuSans-78" d="M 3513 3500 
L 2247 1797 
L 3578 0 
L 2900 0 
L 1881 1375 
L 863 0 
L 184 0 
L 1544 1831 
L 300 3500 
L 978 3500 
L 1906 2253 
L 2834 3500 
L 3513 3500 
z
" transform="scale(0.015625)"/>
       <path id="DejaVuSans-45" d="M 628 4666 
L 3578 4666 
L 3578 4134 
L 1259 4134 
L 1259 2753 
L 3481 2753 
L 3481 2222 
L 1259 2222 
L 1259 531 
L 3634 531 
L 3634 0 
L 628 0 
L 628 4666 
z
" transform="scale(0.015625)"/>
       <path id="DejaVuSans-73" d="M 2834 3397 
L 2834 2853 
Q 2591 2978 2328 3040 
Q 2066 3103 1784 3103 
Q 1356 3103 1142 2972 
Q 928 2841 928 2578 
Q 928 2378 1081 2264 
Q 1234 2150 1697 2047 
L 1894 2003 
Q 2506 1872 2764 1633 
Q 3022 1394 3022 966 
Q 3022 478 2636 193 
Q 2250 -91 1575 -91 
Q 1294 -91 989 -36 
Q 684 19 347 128 
L 347 722 
Q 666 556 975 473 
Q 1284 391 1588 391 
Q 1994 391 2212 530 
Q 2431 669 2431 922 
Q 2431 1156 2273 1281 
Q 2116 1406 1581 1522 
L 1381 1569 
Q 847 1681 609 1914 
Q 372 2147 372 2553 
Q 372 3047 722 3315 
Q 1072 3584 1716 3584 
Q 2034 3584 2315 3537 
Q 2597 3491 2834 3397 
z
" transform="scale(0.015625)"/>
       <path id="DejaVuSans-74" d="M 1172 4494 
L 1172 3500 
L 2356 3500 
L 2356 3053 
L 1172 3053 
L 1172 1153 
Q 1172 725 1289 603 
Q 1406 481 1766 481 
L 2356 481 
L 2356 0 
L 1766 0 
Q 1100 0 847 248 
Q 594 497 594 1153 
L 594 3053 
L 172 3053 
L 172 3500 
L 594 3500 
L 594 4494 
L 1172 4494 
z
" transform="scale(0.015625)"/>
       <path id="DejaVuSans-61" d="M 2194 1759 
Q 1497 1759 1228 1600 
Q 959 1441 959 1056 
Q 959 750 1161 570 
Q 1363 391 1709 391 
Q 2188 391 2477 730 
Q 2766 1069 2766 1631 
L 2766 1759 
L 2194 1759 
z
M 3341 1997 
L 3341 0 
L 2766 0 
L 2766 531 
Q 2569 213 2275 61 
Q 1981 -91 1556 -91 
Q 1019 -91 701 211 
Q 384 513 384 1019 
Q 384 1609 779 1909 
Q 1175 2209 1959 2209 
L 2766 2209 
L 2766 2266 
Q 2766 2663 2505 2880 
Q 2244 3097 1772 3097 
Q 1472 3097 1187 3025 
Q 903 2953 641 2809 
L 641 3341 
Q 956 3463 1253 3523 
Q 1550 3584 1831 3584 
Q 2591 3584 2966 3190 
Q 3341 2797 3341 1997 
z
" transform="scale(0.015625)"/>
      </defs>
      <use xlink:href="#DejaVuSans-43"/>
      <use xlink:href="#DejaVuSans-72" x="69.824219"/>
      <use xlink:href="#DejaVuSans-69" x="110.9375"/>
      <use xlink:href="#DejaVuSans-6d" x="138.720703"/>
      <use xlink:href="#DejaVuSans-65" x="236.132812"/>
      <use xlink:href="#DejaVuSans-20" x="297.65625"/>
      <use xlink:href="#DejaVuSans-49" x="329.443359"/>
      <use xlink:href="#DejaVuSans-6e" x="358.935547"/>
      <use xlink:href="#DejaVuSans-64" x="422.314453"/>
      <use xlink:href="#DejaVuSans-65" x="485.791016"/>
      <use xlink:href="#DejaVuSans-78" x="545.564453"/>
      <use xlink:href="#DejaVuSans-20" x="604.744141"/>
      <use xlink:href="#DejaVuSans-45" x="636.53125"/>
      <use xlink:href="#DejaVuSans-73" x="699.714844"/>
      <use xlink:href="#DejaVuSans-74" x="751.814453"/>
      <use xlink:href="#DejaVuSans-69" x="791.023438"/>
      <use xlink:href="#DejaVuSans-6d" x="818.806641"/>
      <use xlink:href="#DejaVuSans-61" x="916.21875"/>
      <use xlink:href="#DejaVuSans-74" x="977.498047"/>
      <use xlink:href="#DejaVuSans-65" x="1016.707031"/>
     </g>
    </g>
   </g>
   <g id="matplotlib.axis_2">
    <g id="ytick_1">
     <g id="line2d_5">
      <defs>
       <path id="m2ebd3785ee" d="M 0 0 
L -3.5 0 
" style="stroke: #000000; stroke-width: 0.8"/>
      </defs>
      <g>
       <use xlink:href="#m2ebd3785ee" x="57.57708" y="312.076743" style="stroke: #000000; stroke-width: 0.8"/>
      </g>
     </g>
     <g id="text_6">
      <!-- −8 -->
      <g transform="translate(35.834893 315.875962) scale(0.1 -0.1)">
       <defs>
        <path id="DejaVuSans-2212" d="M 678 2272 
L 4684 2272 
L 4684 1741 
L 678 1741 
L 678 2272 
z
" transform="scale(0.015625)"/>
        <path id="DejaVuSans-38" d="M 2034 2216 
Q 1584 2216 1326 1975 
Q 1069 1734 1069 1313 
Q 1069 891 1326 650 
Q 1584 409 2034 409 
Q 2484 409 2743 651 
Q 3003 894 3003 1313 
Q 3003 1734 2745 1975 
Q 2488 2216 2034 2216 
z
M 1403 2484 
Q 997 2584 770 2862 
Q 544 3141 544 3541 
Q 544 4100 942 4425 
Q 1341 4750 2034 4750 
Q 2731 4750 3128 4425 
Q 3525 4100 3525 3541 
Q 3525 3141 3298 2862 
Q 3072 2584 2669 2484 
Q 3125 2378 3379 2068 
Q 3634 1759 3634 1313 
Q 3634 634 3220 271 
Q 2806 -91 2034 -91 
Q 1263 -91 848 271 
Q 434 634 434 1313 
Q 434 1759 690 2068 
Q 947 2378 1403 2484 
z
M 1172 3481 
Q 1172 3119 1398 2916 
Q 1625 2713 2034 2713 
Q 2441 2713 2670 2916 
Q 2900 3119 2900 3481 
Q 2900 3844 2670 4047 
Q 2441 4250 2034 4250 
Q 1625 4250 1398 4047 
Q 1172 3844 1172 3481 
z
" transform="scale(0.015625)"/>
       </defs>
       <use xlink:href="#DejaVuSans-2212"/>
       <use xlink:href="#DejaVuSans-38" x="83.789062"/>
      </g>
     </g>
    </g>
    <g id="ytick_2">
     <g id="line2d_6">
      <g>
       <use xlink:href="#m2ebd3785ee" x="57.57708" y="276.463914" style="stroke: #000000; stroke-width: 0.8"/>
      </g>
     </g>
     <g id="text_7">
      <!-- −6 -->
      <g transform="translate(35.834893 280.263132) scale(0.1 -0.1)">
       <defs>
        <path id="DejaVuSans-36" d="M 2113 2584 
Q 1688 2584 1439 2293 
Q 1191 2003 1191 1497 
Q 1191 994 1439 701 
Q 1688 409 2113 409 
Q 2538 409 2786 701 
Q 3034 994 3034 1497 
Q 3034 2003 2786 2293 
Q 2538 2584 2113 2584 
z
M 3366 4563 
L 3366 3988 
Q 3128 4100 2886 4159 
Q 2644 4219 2406 4219 
Q 1781 4219 1451 3797 
Q 1122 3375 1075 2522 
Q 1259 2794 1537 2939 
Q 1816 3084 2150 3084 
Q 2853 3084 3261 2657 
Q 3669 2231 3669 1497 
Q 3669 778 3244 343 
Q 2819 -91 2113 -91 
Q 1303 -91 875 529 
Q 447 1150 447 2328 
Q 447 3434 972 4092 
Q 1497 4750 2381 4750 
Q 2619 4750 2861 4703 
Q 3103 4656 3366 4563 
z
" transform="scale(0.015625)"/>
       </defs>
       <use xlink:href="#DejaVuSans-2212"/>
       <use xlink:href="#DejaVuSans-36" x="83.789062"/>
      </g>
     </g>
    </g>
    <g id="ytick_3">
     <g id="line2d_7">
      <g>
       <use xlink:href="#m2ebd3785ee" x="57.57708" y="240.851084" style="stroke: #000000; stroke-width: 0.8"/>
      </g>
     </g>
     <g id="text_8">
      <!-- −4 -->
      <g transform="translate(35.834893 244.650303) scale(0.1 -0.1)">
       <defs>
        <path id="DejaVuSans-34" d="M 2419 4116 
L 825 1625 
L 2419 1625 
L 2419 4116 
z
M 2253 4666 
L 3047 4666 
L 3047 1625 
L 3713 1625 
L 3713 1100 
L 3047 1100 
L 3047 0 
L 2419 0 
L 2419 1100 
L 313 1100 
L 313 1709 
L 2253 4666 
z
" transform="scale(0.015625)"/>
       </defs>
       <use xlink:href="#DejaVuSans-2212"/>
       <use xlink:href="#DejaVuSans-34" x="83.789062"/>
      </g>
     </g>
    </g>
    <g id="ytick_4">
     <g id="line2d_8">
      <g>
       <use xlink:href="#m2ebd3785ee" x="57.57708" y="205.238255" style="stroke: #000000; stroke-width: 0.8"/>
      </g>
     </g>
     <g id="text_9">
      <!-- −2 -->
      <g transform="translate(35.834893 209.037474) scale(0.1 -0.1)">
       <use xlink:href="#DejaVuSans-2212"/>
       <use xlink:href="#DejaVuSans-32" x="83.789062"/>
      </g>
     </g>
    </g>
    <g id="ytick_5">
     <g id="line2d_9">
      <g>
       <use xlink:href="#m2ebd3785ee" x="57.57708" y="169.625426" style="stroke: #000000; stroke-width: 0.8"/>
      </g>
     </g>
     <g id="text_10">
      <!-- 0 -->
      <g transform="translate(44.21458 173.424644) scale(0.1 -0.1)">
       <use xlink:href="#DejaVuSans-30"/>
      </g>
     </g>
    </g>
    <g id="ytick_6">
     <g id="line2d_10">
      <g>
       <use xlink:href="#m2ebd3785ee" x="57.57708" y="134.012596" style="stroke: #000000; stroke-width: 0.8"/>
      </g>
     </g>
     <g id="text_11">
      <!-- 2 -->
      <g transform="translate(44.21458 137.811815) scale(0.1 -0.1)">
       <use xlink:href="#DejaVuSans-32"/>
      </g>
     </g>
    </g>
    <g id="ytick_7">
     <g id="line2d_11">
      <g>
       <use xlink:href="#m2ebd3785ee" x="57.57708" y="98.399767" style="stroke: #000000; stroke-width: 0.8"/>
      </g>
     </g>
     <g id="text_12">
      <!-- 4 -->
      <g transform="translate(44.21458 102.198986) scale(0.1 -0.1)">
       <use xlink:href="#DejaVuSans-34"/>
      </g>
     </g>
    </g>
    <g id="ytick_8">
     <g id="line2d_12">
      <g>
       <use xlink:href="#m2ebd3785ee" x="57.57708" y="62.786937" style="stroke: #000000; stroke-width: 0.8"/>
      </g>
     </g>
     <g id="text_13">
      <!-- 6 -->
      <g transform="translate(44.21458 66.586156) scale(0.1 -0.1)">
       <use xlink:href="#DejaVuSans-36"/>
      </g>
     </g>
    </g>
    <g id="ytick_9">
     <g id="line2d_13">
      <g>
       <use xlink:href="#m2ebd3785ee" x="57.57708" y="27.174108" style="stroke: #000000; stroke-width: 0.8"/>
      </g>
     </g>
     <g id="text_14">
      <!-- 8 -->
      <g transform="translate(44.21458 30.973327) scale(0.1 -0.1)">
       <use xlink:href="#DejaVuSans-38"/>
      </g>
     </g>
    </g>
    <g id="text_15">
     <!-- Deviance Residual -->
     <g transform="translate(29.755205 217.658281) rotate(-90) scale(0.1 -0.1)">
      <defs>
       <path id="DejaVuSans-44" d="M 1259 4147 
L 1259 519 
L 2022 519 
Q 2988 519 3436 956 
Q 3884 1394 3884 2338 
Q 3884 3275 3436 3711 
Q 2988 4147 2022 4147 
L 1259 4147 
z
M 628 4666 
L 1925 4666 
Q 3281 4666 3915 4102 
Q 4550 3538 4550 2338 
Q 4550 1131 3912 565 
Q 3275 0 1925 0 
L 628 0 
L 628 4666 
z
" transform="scale(0.015625)"/>
       <path id="DejaVuSans-76" d="M 191 3500 
L 800 3500 
L 1894 563 
L 2988 3500 
L 3597 3500 
L 2284 0 
L 1503 0 
L 191 3500 
z
" transform="scale(0.015625)"/>
       <path id="DejaVuSans-63" d="M 3122 3366 
L 3122 2828 
Q 2878 2963 2633 3030 
Q 2388 3097 2138 3097 
Q 1578 3097 1268 2742 
Q 959 2388 959 1747 
Q 959 1106 1268 751 
Q 1578 397 2138 397 
Q 2388 397 2633 464 
Q 2878 531 3122 666 
L 3122 134 
Q 2881 22 2623 -34 
Q 2366 -91 2075 -91 
Q 1284 -91 818 406 
Q 353 903 353 1747 
Q 353 2603 823 3093 
Q 1294 3584 2113 3584 
Q 2378 3584 2631 3529 
Q 2884 3475 3122 3366 
z
" transform="scale(0.015625)"/>
       <path id="DejaVuSans-52" d="M 2841 2188 
Q 3044 2119 3236 1894 
Q 3428 1669 3622 1275 
L 4263 0 
L 3584 0 
L 2988 1197 
Q 2756 1666 2539 1819 
Q 2322 1972 1947 1972 
L 1259 1972 
L 1259 0 
L 628 0 
L 628 4666 
L 2053 4666 
Q 2853 4666 3247 4331 
Q 3641 3997 3641 3322 
Q 3641 2881 3436 2590 
Q 3231 2300 2841 2188 
z
M 1259 4147 
L 1259 2491 
L 2053 2491 
Q 2509 2491 2742 2702 
Q 2975 2913 2975 3322 
Q 2975 3731 2742 3939 
Q 2509 4147 2053 4147 
L 1259 4147 
z
" transform="scale(0.015625)"/>
       <path id="DejaVuSans-75" d="M 544 1381 
L 544 3500 
L 1119 3500 
L 1119 1403 
Q 1119 906 1312 657 
Q 1506 409 1894 409 
Q 2359 409 2629 706 
Q 2900 1003 2900 1516 
L 2900 3500 
L 3475 3500 
L 3475 0 
L 2900 0 
L 2900 538 
Q 2691 219 2414 64 
Q 2138 -91 1772 -91 
Q 1169 -91 856 284 
Q 544 659 544 1381 
z
M 1991 3584 
L 1991 3584 
z
" transform="scale(0.015625)"/>
       <path id="DejaVuSans-6c" d="M 603 4863 
L 1178 4863 
L 1178 0 
L 603 0 
L 603 4863 
z
" transform="scale(0.015625)"/>
      </defs>
      <use xlink:href="#DejaVuSans-44"/>
      <use xlink:href="#DejaVuSans-65" x="77.001953"/>
      <use xlink:href="#DejaVuSans-76" x="138.525391"/>
      <use xlink:href="#DejaVuSans-69" x="197.705078"/>
      <use xlink:href="#DejaVuSans-61" x="225.488281"/>
      <use xlink:href="#DejaVuSans-6e" x="286.767578"/>
      <use xlink:href="#DejaVuSans-63" x="350.146484"/>
      <use xlink:href="#DejaVuSans-65" x="405.126953"/>
      <use xlink:href="#DejaVuSans-20" x="466.650391"/>
      <use xlink:href="#DejaVuSans-52" x="498.4375"/>
      <use xlink:href="#DejaVuSans-65" x="563.419922"/>
      <use xlink:href="#DejaVuSans-73" x="624.943359"/>
      <use xlink:href="#DejaVuSans-69" x="677.042969"/>
      <use xlink:href="#DejaVuSans-64" x="704.826172"/>
      <use xlink:href="#DejaVuSans-75" x="768.302734"/>
      <use xlink:href="#DejaVuSans-61" x="831.681641"/>
      <use xlink:href="#DejaVuSans-6c" x="892.960938"/>
     </g>
    </g>
   </g>
   <g id="patch_3">
    <path d="M 57.57708 318.04 
L 57.57708 25.2 
" style="fill: none; stroke: #000000; stroke-width: 0.8; stroke-linejoin: miter; stroke-linecap: square"/>
   </g>
   <g id="patch_4">
    <path d="M 57.57708 318.04 
L 355.5558 318.04 
" style="fill: none; stroke: #000000; stroke-width: 0.8; stroke-linejoin: miter; stroke-linecap: square"/>
   </g>
   <g id="text_16">
    <!-- Deviance Residual VS. Predicted -->
    <g transform="translate(109.522065 19.2) scale(0.12 -0.12)">
     <defs>
      <path id="DejaVuSans-56" d="M 1831 0 
L 50 4666 
L 709 4666 
L 2188 738 
L 3669 4666 
L 4325 4666 
L 2547 0 
L 1831 0 
z
" transform="scale(0.015625)"/>
      <path id="DejaVuSans-53" d="M 3425 4513 
L 3425 3897 
Q 3066 4069 2747 4153 
Q 2428 4238 2131 4238 
Q 1616 4238 1336 4038 
Q 1056 3838 1056 3469 
Q 1056 3159 1242 3001 
Q 1428 2844 1947 2747 
L 2328 2669 
Q 3034 2534 3370 2195 
Q 3706 1856 3706 1288 
Q 3706 609 3251 259 
Q 2797 -91 1919 -91 
Q 1588 -91 1214 -16 
Q 841 59 441 206 
L 441 856 
Q 825 641 1194 531 
Q 1563 422 1919 422 
Q 2459 422 2753 634 
Q 3047 847 3047 1241 
Q 3047 1584 2836 1778 
Q 2625 1972 2144 2069 
L 1759 2144 
Q 1053 2284 737 2584 
Q 422 2884 422 3419 
Q 422 4038 858 4394 
Q 1294 4750 2059 4750 
Q 2388 4750 2728 4690 
Q 3069 4631 3425 4513 
z
" transform="scale(0.015625)"/>
      <path id="DejaVuSans-2e" d="M 684 794 
L 1344 794 
L 1344 0 
L 684 0 
L 684 794 
z
" transform="scale(0.015625)"/>
      <path id="DejaVuSans-50" d="M 1259 4147 
L 1259 2394 
L 2053 2394 
Q 2494 2394 2734 2622 
Q 2975 2850 2975 3272 
Q 2975 3691 2734 3919 
Q 2494 4147 2053 4147 
L 1259 4147 
z
M 628 4666 
L 2053 4666 
Q 2838 4666 3239 4311 
Q 3641 3956 3641 3272 
Q 3641 2581 3239 2228 
Q 2838 1875 2053 1875 
L 1259 1875 
L 1259 0 
L 628 0 
L 628 4666 
z
" transform="scale(0.015625)"/>
     </defs>
     <use xlink:href="#DejaVuSans-44"/>
     <use xlink:href="#DejaVuSans-65" x="77.001953"/>
     <use xlink:href="#DejaVuSans-76" x="138.525391"/>
     <use xlink:href="#DejaVuSans-69" x="197.705078"/>
     <use xlink:href="#DejaVuSans-61" x="225.488281"/>
     <use xlink:href="#DejaVuSans-6e" x="286.767578"/>
     <use xlink:href="#DejaVuSans-63" x="350.146484"/>
     <use xlink:href="#DejaVuSans-65" x="405.126953"/>
     <use xlink:href="#DejaVuSans-20" x="466.650391"/>
     <use xlink:href="#DejaVuSans-52" x="498.4375"/>
     <use xlink:href="#DejaVuSans-65" x="563.419922"/>
     <use xlink:href="#DejaVuSans-73" x="624.943359"/>
     <use xlink:href="#DejaVuSans-69" x="677.042969"/>
     <use xlink:href="#DejaVuSans-64" x="704.826172"/>
     <use xlink:href="#DejaVuSans-75" x="768.302734"/>
     <use xlink:href="#DejaVuSans-61" x="831.681641"/>
     <use xlink:href="#DejaVuSans-6c" x="892.960938"/>
     <use xlink:href="#DejaVuSans-20" x="920.744141"/>
     <use xlink:href="#DejaVuSans-56" x="952.53125"/>
     <use xlink:href="#DejaVuSans-53" x="1020.939453"/>
     <use xlink:href="#DejaVuSans-2e" x="1084.416016"/>
     <use xlink:href="#DejaVuSans-20" x="1116.203125"/>
     <use xlink:href="#DejaVuSans-50" x="1147.990234"/>
     <use xlink:href="#DejaVuSans-72" x="1206.542969"/>
     <use xlink:href="#DejaVuSans-65" x="1245.40625"/>
     <use xlink:href="#DejaVuSans-64" x="1306.929688"/>
     <use xlink:href="#DejaVuSans-69" x="1370.40625"/>
     <use xlink:href="#DejaVuSans-63" x="1398.189453"/>
     <use xlink:href="#DejaVuSans-74" x="1453.169922"/>
     <use xlink:href="#DejaVuSans-65" x="1492.378906"/>
     <use xlink:href="#DejaVuSans-64" x="1553.902344"/>
    </g>
   </g>
  </g>
  <g id="legend_1">
   <g id="text_17">
    <!-- Deviance -->
    <g transform="translate(373.593437 131.385938) scale(0.1 -0.1)">
     <use xlink:href="#DejaVuSans-44"/>
     <use xlink:href="#DejaVuSans-65" x="77.001953"/>
     <use xlink:href="#DejaVuSans-76" x="138.525391"/>
     <use xlink:href="#DejaVuSans-69" x="197.705078"/>
     <use xlink:href="#DejaVuSans-61" x="225.488281"/>
     <use xlink:href="#DejaVuSans-6e" x="286.767578"/>
     <use xlink:href="#DejaVuSans-63" x="350.146484"/>
     <use xlink:href="#DejaVuSans-65" x="405.126953"/>
    </g>
   </g>
   <g id="PathCollection_8">
    <g>
     <use xlink:href="#m7256e1372d" x="368.434062" y="143.439063" style="fill: #6282ea; fill-opacity: 0.8; stroke: #6282ea; stroke-opacity: 0.8"/>
    </g>
   </g>
   <g id="text_18">
    <!-- &lt; -2.5 -->
    <g transform="translate(386.434062 146.064063) scale(0.1 -0.1)">
     <defs>
      <path id="DejaVuSans-3c" d="M 4684 3150 
L 1459 2003 
L 4684 863 
L 4684 294 
L 678 1747 
L 678 2266 
L 4684 3719 
L 4684 3150 
z
" transform="scale(0.015625)"/>
      <path id="DejaVuSans-2d" d="M 313 2009 
L 1997 2009 
L 1997 1497 
L 313 1497 
L 313 2009 
z
" transform="scale(0.015625)"/>
     </defs>
     <use xlink:href="#DejaVuSans-3c"/>
     <use xlink:href="#DejaVuSans-20" x="83.789062"/>
     <use xlink:href="#DejaVuSans-2d" x="115.576172"/>
     <use xlink:href="#DejaVuSans-32" x="151.660156"/>
     <use xlink:href="#DejaVuSans-2e" x="215.283203"/>
     <use xlink:href="#DejaVuSans-35" x="247.070312"/>
    </g>
   </g>
   <g id="PathCollection_9">
    <g>
     <use xlink:href="#m5075525ead" x="368.434062" y="158.117188" style="fill: #8db0fe; fill-opacity: 0.8; stroke: #8db0fe; stroke-opacity: 0.8"/>
    </g>
   </g>
   <g id="text_19">
    <!-- -2.5 - -1.5 -->
    <g transform="translate(386.434062 160.742188) scale(0.1 -0.1)">
     <use xlink:href="#DejaVuSans-2d"/>
     <use xlink:href="#DejaVuSans-32" x="36.083984"/>
     <use xlink:href="#DejaVuSans-2e" x="99.707031"/>
     <use xlink:href="#DejaVuSans-35" x="131.494141"/>
     <use xlink:href="#DejaVuSans-20" x="195.117188"/>
     <use xlink:href="#DejaVuSans-2d" x="226.904297"/>
     <use xlink:href="#DejaVuSans-20" x="262.988281"/>
     <use xlink:href="#DejaVuSans-2d" x="294.775391"/>
     <use xlink:href="#DejaVuSans-31" x="330.859375"/>
     <use xlink:href="#DejaVuSans-2e" x="394.482422"/>
     <use xlink:href="#DejaVuSans-35" x="426.269531"/>
    </g>
   </g>
   <g id="PathCollection_10">
    <g>
     <use xlink:href="#m3c06aeaa2c" x="368.434062" y="172.795313" style="fill: #b9d0f9; fill-opacity: 0.8; stroke: #b9d0f9; stroke-opacity: 0.8"/>
    </g>
   </g>
   <g id="text_20">
    <!-- -1.5 - -0.5 -->
    <g transform="translate(386.434062 175.420313) scale(0.1 -0.1)">
     <use xlink:href="#DejaVuSans-2d"/>
     <use xlink:href="#DejaVuSans-31" x="36.083984"/>
     <use xlink:href="#DejaVuSans-2e" x="99.707031"/>
     <use xlink:href="#DejaVuSans-35" x="131.494141"/>
     <use xlink:href="#DejaVuSans-20" x="195.117188"/>
     <use xlink:href="#DejaVuSans-2d" x="226.904297"/>
     <use xlink:href="#DejaVuSans-20" x="262.988281"/>
     <use xlink:href="#DejaVuSans-2d" x="294.775391"/>
     <use xlink:href="#DejaVuSans-30" x="330.859375"/>
     <use xlink:href="#DejaVuSans-2e" x="394.482422"/>
     <use xlink:href="#DejaVuSans-35" x="426.269531"/>
    </g>
   </g>
   <g id="PathCollection_11">
    <g>
     <use xlink:href="#mdfd077226c" x="368.434062" y="187.473438" style="fill: #dddcdc; fill-opacity: 0.8; stroke: #dddcdc; stroke-opacity: 0.8"/>
    </g>
   </g>
   <g id="text_21">
    <!-- -0.5 - 0.5 -->
    <g transform="translate(386.434062 190.098438) scale(0.1 -0.1)">
     <use xlink:href="#DejaVuSans-2d"/>
     <use xlink:href="#DejaVuSans-30" x="36.083984"/>
     <use xlink:href="#DejaVuSans-2e" x="99.707031"/>
     <use xlink:href="#DejaVuSans-35" x="131.494141"/>
     <use xlink:href="#DejaVuSans-20" x="195.117188"/>
     <use xlink:href="#DejaVuSans-2d" x="226.904297"/>
     <use xlink:href="#DejaVuSans-20" x="262.988281"/>
     <use xlink:href="#DejaVuSans-30" x="294.775391"/>
     <use xlink:href="#DejaVuSans-2e" x="358.398438"/>
     <use xlink:href="#DejaVuSans-35" x="390.185547"/>
    </g>
   </g>
   <g id="PathCollection_12">
    <g>
     <use xlink:href="#m9424092bdb" x="368.434062" y="202.151563" style="fill: #f5c4ac; fill-opacity: 0.8; stroke: #f5c4ac; stroke-opacity: 0.8"/>
    </g>
   </g>
   <g id="text_22">
    <!-- 0.5 - 1.5 -->
    <g transform="translate(386.434062 204.776563) scale(0.1 -0.1)">
     <use xlink:href="#DejaVuSans-30"/>
     <use xlink:href="#DejaVuSans-2e" x="63.623047"/>
     <use xlink:href="#DejaVuSans-35" x="95.410156"/>
     <use xlink:href="#DejaVuSans-20" x="159.033203"/>
     <use xlink:href="#DejaVuSans-2d" x="190.820312"/>
     <use xlink:href="#DejaVuSans-20" x="226.904297"/>
     <use xlink:href="#DejaVuSans-31" x="258.691406"/>
     <use xlink:href="#DejaVuSans-2e" x="322.314453"/>
     <use xlink:href="#DejaVuSans-35" x="354.101562"/>
    </g>
   </g>
   <g id="PathCollection_13">
    <g>
     <use xlink:href="#m9f481a5dbe" x="368.434062" y="216.829688" style="fill: #f4987a; fill-opacity: 0.8; stroke: #f4987a; stroke-opacity: 0.8"/>
    </g>
   </g>
   <g id="text_23">
    <!-- 1.5 - 2.5 -->
    <g transform="translate(386.434062 219.454688) scale(0.1 -0.1)">
     <use xlink:href="#DejaVuSans-31"/>
     <use xlink:href="#DejaVuSans-2e" x="63.623047"/>
     <use xlink:href="#DejaVuSans-35" x="95.410156"/>
     <use xlink:href="#DejaVuSans-20" x="159.033203"/>
     <use xlink:href="#DejaVuSans-2d" x="190.820312"/>
     <use xlink:href="#DejaVuSans-20" x="226.904297"/>
     <use xlink:href="#DejaVuSans-32" x="258.691406"/>
     <use xlink:href="#DejaVuSans-2e" x="322.314453"/>
     <use xlink:href="#DejaVuSans-35" x="354.101562"/>
    </g>
   </g>
   <g id="PathCollection_14">
    <g>
     <use xlink:href="#m6c00eef5f2" x="368.434062" y="231.507813" style="fill: #dd5f4b; fill-opacity: 0.8; stroke: #dd5f4b; stroke-opacity: 0.8"/>
    </g>
   </g>
   <g id="text_24">
    <!-- &gt; 2.5 -->
    <g transform="translate(386.434062 234.132813) scale(0.1 -0.1)">
     <defs>
      <path id="DejaVuSans-3e" d="M 678 3150 
L 678 3719 
L 4684 2266 
L 4684 1747 
L 678 294 
L 678 863 
L 3897 2003 
L 678 3150 
z
" transform="scale(0.015625)"/>
     </defs>
     <use xlink:href="#DejaVuSans-3e"/>
     <use xlink:href="#DejaVuSans-20" x="83.789062"/>
     <use xlink:href="#DejaVuSans-32" x="115.576172"/>
     <use xlink:href="#DejaVuSans-2e" x="179.199219"/>
     <use xlink:href="#DejaVuSans-35" x="210.986328"/>
    </g>
   </g>
  </g>
 </g>
 <defs>
  <clipPath id="p3585178bde">
   <rect x="57.57708" y="25.2" width="297.97872" height="292.84"/>
  </clipPath>
 </defs>
</svg>
